<?xml version="1.0" encoding="UTF-8"?>
<svg version="1.1" xmlns="http://www.w3.org/2000/svg" width="1180" height="256">
<defs>
  <radialGradient id="Gradient2" cx="0.6" cy="0.6" r="1.2" fx="1.5" fy="0">
    <stop offset="30%" stop-color="#c093ff" />
    <stop offset="65%" stop-color="#663da0" />
  </radialGradient>
</defs>
<path d="M 0 0 C 13.9002 0.0223 24.5035 1.3004 35.5625 5.4375 C 84.6 24.7 104.2855 57.1638 112.0264 84.3237 C 114.0022 92.1138 115.5625 100.4014 115 109 C 113 105 115 109 113 105 C 105.4844 90.0349 99.5621 79.2149 90.5625 69.4375 C 32.9 12.6 -16.9 15.6 -56.8164 55.4661 C -93.3 101.1 -82.1 151.8 -57.7 175.4 C -39 195.7 -23.7 195.7 0.5625 197.4375 C 0.5625 192.4875 0.5625 187.5375 0.5625 182.4375 C -0.7575 182.1075 -2.0775 181.7775 -3.4375 181.4375 C -55.1506 155.5818 -57.2933 154.5083 -60 153 C -60 136 -60 112 -60 79 C -60 76 -60 76 -57.7254 74.3223 C -14 52 -14 52 -4.0364 47.4634 C -0.7321 46.1591 1.1618 46.5484 4.5625 47.4375 C 36.627 63.4201 44.5349 67.4202 52.375 71.5625 c 4.8856 2.6005 5.4514 2.2913 6.4514 3.2913 C 61 207 61 209 61 212 C 55.2 224 19.039 228.6334 3.1111 228.6777 C -34.2 229.2 -57.1 219.2 -78.8 200.3 C -95.1 184.5 -108.6 159.1 -111.4375 141.4375 C -121.2 84.7 -103.6 56.6 -81.3 32.2 C -54.8 6.6 -30.9706 -0.0099 0 0 Z" fill="#663da0" transform="translate(128.4375,13.5625)"/>
<path d="M 0 0 C 45.9862 21.9616 45.9862 21.9616 60 29 C 60 54.41 60 79.82 60 106 C 56.7 105.5 55.3 105 50.8359 102.5315 C 4.287 79.1443 2.1436 78.0718 -0.6 76.8 C -0.6 51 -0.7 10 -0.7 4 C -0.7 1.4 -0.6 0.2 -0.3 0 Z" fill="#a065f2" transform="translate(69,90)"/>
<path d="M 0 0 C 44 22 48 24 51 26 C 15 47 13 48 1 54 C -7 58 -8 58 -15 54 C -62 31 -64 30 -67.8 27.8 C -67.6 26.8 -66.8 26.1 -65 25 C -63 24 -54 19 -40 12 C -26 5 -25 5 -15 0 C -8 -3 -7 -3 0 0 Z" fill="#834fcc" transform="translate(136.3125,62.4609375)"/>
<path d="M 0 0 C 13.9002 0.0223 24.5035 1.3004 35.5625 5.4375 C 84.6 24.7 104.2855 57.1638 112.0264 84.3237 C 114.0022 92.1138 115.5625 100.4014 115 109 C 113 105 115 109 113 105 C 105.4844 90.0349 99.5621 79.2149 90.5625 69.4375 C 32.9 12.6 -16.9 15.6 -56.8164 55.4661 C -89.6 101.9 -112.9 96.9 -81.3 32.2 C -54.8 6.6 -30.9706 -0.0099 0 0 Z" fill="url(#Gradient2)" transform="translate(128.4375,13.5625)"/>

<g transform="translate(190,310) scale(0.35,-0.35)"
fill="#663da0">
<path d="M278 744 c-39 -21 -48 -43 -48 -123 0 -64 3 -74 29 -103 26 -29 34
-32 107 -37 l79 -6 3 -43 c5 -65 -6 -72 -114 -72 l-94 0 0 -40 0 -40 121 0
121 0 34 34 c32 32 34 38 34 100 0 112 -30 144 -147 154 -71 5 -86 17 -81 64
l3 33 100 5 100 5 3 43 3 42 -113 0 c-80 -1 -121 -5 -140 -16z"/>
<path d="M630 519 l0 -240 48 3 47 3 3 238 2 237 -50 0 -50 0 0 -241z"/>
<path d="M820 708 c11 -29 35 -83 54 -120 l34 -67 -54 -103 c-67 -129 -68
-138 -10 -138 l44 0 40 93 c62 140 83 142 140 11 19 -43 39 -85 44 -91 12 -15
98 -18 98 -3 0 15 -89 192 -107 212 -15 17 -15 19 0 36 14 15 107 205 107 218
0 10 -89 3 -97 -8 -5 -7 -25 -48 -43 -91 -56 -130 -76 -128 -130 9 l-35 89
-53 3 -52 3 20 -53z"/>
<path d="M1308 744 c-15 -8 -32 -23 -38 -34 -14 -26 -13 -355 1 -382 18 -33
70 -48 174 -48 l96 0 -3 43 -3 42 -80 3 c-43 2 -85 8 -92 14 -14 12 -19 253
-5 275 5 7 40 13 92 15 l85 3 3 43 3 42 -103 0 c-71 -1 -111 -5 -130 -16z"/>
<path d="M1654 754 c-15 -8 -32 -23 -38 -34 -14 -26 -13 -375 1 -402 18 -33
71 -48 170 -48 102 0 149 16 168 56 7 16 11 89 11 195 0 186 -7 215 -55 237
-38 18 -223 15 -257 -4z m207 -234 l0 -155 -74 -3 c-53 -2 -77 1 -82 10 -10
15 -12 268 -3 293 5 13 20 15 83 13 l76 -3 0 -155z"/>
<path d="M2098 754 c-15 -8 -32 -23 -38 -34 -14 -26 -13 -375 1 -402 18 -33
71 -48 170 -48 102 0 149 16 168 56 7 16 11 89 11 195 0 186 -7 215 -55 237
-38 18 -223 15 -257 -4z m207 -234 l0 -155 -74 -3 c-53 -2 -77 1 -82 10 -10
15 -12 268 -3 293 5 13 20 15 83 13 l76 -3 0 -155z"/>
<path d="M2510 525 l0 -235 88 -1 c48 -1 105 -2 127 -3 39 -1 40 0 43 36 l3
37 -83 3 -83 3 -3 198 -2 197 -45 0 -45 0 0 -235z"/>
</g>
</svg>
